<?xml version="1.0" encoding="iso-8859-1"?>
<!-- Generator: Adobe Illustrator 24.1.2, SVG Export Plug-In . SVG Version: 6.00 Build 0)  -->
<svg version="1.1" baseProfile="basic" id="Layer_1"
	 xmlns="http://www.w3.org/2000/svg" xmlns:xlink="http://www.w3.org/1999/xlink" x="0px" y="0px" viewBox="0 0 48 48"
	 xml:space="preserve">
<polygon style="fill:#3F51B5;" points="27,39 41,37 41,24 27,25 "/>
<polygon style="fill:#303F9F;" points="41,24 33,21 22,22 27,25 "/>
<polygon style="fill:#3949AB;" points="22,22 22,35 27,39 27,25 "/>
<polygon style="fill:#FFEB3B;" points="10,41 25,39 25,25 10,26 "/>
<polygon style="fill:#FBC02D;" points="25,25 20,22 7,23 10,26 "/>
<polygon style="fill:#FDD835;" points="7,23 7,37 10,41 10,26 "/>
<polygon style="fill:#8BC34A;" points="27,23 41,22 41,7 27,7 "/>
<polygon style="fill:#7CB342;" points="22,9 22,20 27,23 27,7 "/>
<polygon style="fill:#F44336;" points="10,24 25,23 25,7 10,7 "/>
<polygon style="fill:#D32F2F;" points="7,9 7,21 10,24 10,7 "/>
</svg>